<svg width="30" height="33" viewBox="0 0 30 33" fill="none" xmlns="http://www.w3.org/2000/svg">
<path d="M26.2534 11.3257V11.3266H24.9883V10.1956C24.9883 4.58429 20.4137 0.0359514 14.7713 0.0359514C9.12982 0.0359514 4.55524 4.58526 4.55524 10.1956V11.3266H3.29208C1.96577 11.3266 0.891113 12.3945 0.891113 13.714V23.041C0.894028 23.6628 0.930951 24.1137 1.17387 24.4421C1.42553 24.7725 1.84917 24.89 2.48172 24.8891H4.51346L4.82342 29.8008C4.82342 29.8125 4.82245 29.8319 4.82245 29.8562C4.82342 29.9864 4.838 30.2857 5.00221 30.5723C5.16447 30.8619 5.50553 31.1203 6.05646 31.1155H11.2208L13.9026 28.2704H15.9062L18.4995 31.2039H18.5714C18.5714 31.2039 19.5101 31.2039 20.5497 31.2039C21.5875 31.2039 22.7272 31.2039 23.1295 31.2039V31.2039H23.1305C23.5298 31.2019 23.8942 31.2117 24.211 31.0105C24.5267 30.8045 24.7162 30.4139 24.8076 29.7328C24.9407 28.7427 24.9718 26.0337 25.033 24.89H27.0628C27.6876 24.8881 28.0956 24.8288 28.3609 24.5432C28.6165 24.2536 28.6505 23.8397 28.6534 23.2188V13.715C28.6534 12.3945 27.5787 11.3266 26.2534 11.3257Z" fill="#349334"/>
<path d="M28.3334 23.2188C28.3363 23.83 28.2751 24.172 28.1235 24.3294C27.9826 24.4936 27.6756 24.5733 27.0635 24.5713H24.7295L24.7218 24.7219C24.6654 25.7995 24.6275 28.6815 24.4915 29.69C24.404 30.3411 24.234 30.617 24.0367 30.7433C23.8385 30.8764 23.5354 30.8862 23.1311 30.8842H23.1302C22.3917 30.8842 19.1697 30.8842 18.644 30.8842L16.0507 27.9498H13.7643L11.0826 30.7948H6.05616C5.59851 30.79 5.40321 30.6151 5.27884 30.411C5.15932 30.207 5.13989 29.9543 5.14183 29.8552C5.14183 29.8241 5.1428 29.8115 5.1428 29.8115L5.14378 29.7989L4.81244 24.5704H2.48143C1.87414 24.5694 1.58459 24.4577 1.43009 24.2507C1.26685 24.0428 1.20855 23.6492 1.2105 23.04V13.713C1.21244 12.5694 2.14232 11.6453 3.29179 11.6434H4.8756V10.1947C4.88531 4.76016 9.30539 0.363401 14.772 0.353684C20.2375 0.363401 24.6586 4.76016 24.6683 10.1956V11.6444H26.2531C27.4016 11.6463 28.3315 12.5704 28.3324 13.714V23.2188H28.3334Z" fill="#4CB649"/>
<path d="M5.18066 24.3138H24.4079V24.9415H5.18066V24.3138Z" fill="#118011"/>
<path d="M4.86133 24.5402V12.4985H5.181V24.5402H4.86133V24.5402Z" fill="#118011"/>
<path d="M24.4092 24.5402V12.4985H24.7298V24.5402H24.4092V24.5402Z" fill="#118011"/>
<ellipse cx="14.6274" cy="15.0967" rx="6.88518" ry="1.26121" fill="url(#paint0_linear_0_628)"/>
<path d="M21.0558 11.8688V10.0275C21.0558 6.55968 18.2448 3.74769 14.7759 3.74769C11.3081 3.74769 8.49512 6.55968 8.49512 10.0275V11.8688H21.0558Z" fill="white"/>
<path d="M12.1274 9.95174H17.7261V10.6076H12.1274V9.95174Z" fill="url(#paint1_radial_0_628)"/>
<circle cx="12.6821" cy="7.17765" r="1.16016" fill="black"/>
<circle cx="16.8184" cy="7.17765" r="1.16016" fill="black"/>
<rect x="12.52" y="18.8667" width="4.21409" height="3.14818" fill="white"/>
<path d="M13.163 18.5461C13.3525 17.8824 13.9403 17.4005 14.6351 17.3995C15.3298 17.4005 15.9177 17.8824 16.1081 18.5461H16.6085C16.4064 17.6191 15.6058 16.9195 14.6351 16.9185C13.6654 16.9195 12.8637 17.6191 12.6626 18.5461H13.163Z" fill="white"/>
<path d="M27.3832 25.2107C27.4959 25.2097 27.5989 25.2068 27.698 25.2019V24.8502C27.5163 24.8784 27.3065 24.8891 27.0626 24.8891H25.0328C25.0017 25.4575 24.9793 26.4117 24.9473 27.3493H25.2776C25.3048 26.5195 25.3262 25.713 25.3524 25.2107H27.3832Z" fill="#118011"/>
<path d="M27.6992 25.3768V25.2019C27.6001 25.2068 27.4961 25.2097 27.3844 25.2107H25.3546C25.3274 25.714 25.306 26.5205 25.2798 27.3493H25.7491C26.8267 27.3493 27.6992 26.4661 27.6992 25.3768Z" fill="url(#paint2_linear_0_628)"/>
<path d="M4.51359 24.8891H2.48184C2.16703 24.89 1.90565 24.8609 1.68994 24.7909V25.2C1.8182 25.2146 1.95812 25.2223 2.11067 25.2214L4.14338 25.2204L4.27844 27.3483H4.67002L4.51359 24.8891Z" fill="#118011"/>
<path d="M2.11067 25.2223C1.95812 25.2223 1.8182 25.2155 1.68994 25.201V25.3778C1.68994 26.467 2.56249 27.3503 3.63812 27.3503H4.27747L4.14241 25.2223H2.11067Z" fill="url(#paint3_linear_0_628)"/>
<defs>
<linearGradient id="paint0_linear_0_628" x1="20.898" y1="16.3545" x2="20.898" y2="14.0571" gradientUnits="userSpaceOnUse">
<stop stop-color="#4CB649"/>
<stop offset="1" stop-color="#78B280"/>
</linearGradient>
<radialGradient id="paint1_radial_0_628" cx="0" cy="0" r="1" gradientUnits="userSpaceOnUse" gradientTransform="translate(14.9904 10.4884) scale(2.62533 0.455628)">
<stop/>
<stop offset="0.1901" stop-color="#030303"/>
<stop offset="0.3236" stop-color="#0C0C0C"/>
<stop offset="0.4397" stop-color="#1C1C1C"/>
<stop offset="0.5461" stop-color="#323232"/>
<stop offset="0.6456" stop-color="#4E4E4E"/>
<stop offset="0.7402" stop-color="#717171"/>
<stop offset="0.8309" stop-color="#9A9A9A"/>
<stop offset="0.9161" stop-color="#C9C9C9"/>
<stop offset="0.9985" stop-color="#FEFEFE"/>
<stop offset="1" stop-color="white"/>
</radialGradient>
<linearGradient id="paint2_linear_0_628" x1="22.5962" y1="24.9034" x2="24.7982" y2="27.8318" gradientUnits="userSpaceOnUse">
<stop stop-color="#23FF16"/>
<stop offset="1" stop-color="#189A33"/>
</linearGradient>
<linearGradient id="paint3_linear_0_628" x1="3.60769" y1="21.0946" x2="0.593546" y2="25.9408" gradientUnits="userSpaceOnUse">
<stop stop-color="#23FF16"/>
<stop offset="1" stop-color="#189A33"/>
</linearGradient>
</defs>
</svg>
