<?xml version="1.0" encoding="utf-8"?><svg viewBox="0 0 502.66 502.66" xmlns="http://www.w3.org/2000/svg" xmlns:xlink="http://www.w3.org/1999/xlink"><style>:root>svg{display:none}:root>svg:target{display:block}</style><svg viewBox="0 0 14 28" id="footer-facebook-icon" xmlns="http://www.w3.org/2000/svg"><path d="M9.083 28V15.229h4.128l.617-4.978H9.082V7.077c0-1.446.382-2.419 2.378-2.419H14V.192C13.556.128 12.053 0 10.303 0 6.643 0 4.14 2.316 4.14 6.578v3.673H0v4.978h4.14V28h4.943z"/></svg><svg viewBox="0 0 34 22" id="footer-googleplus-icon" xmlns="http://www.w3.org/2000/svg"><path fill-rule="evenodd" clip-rule="evenodd" d="M21.048 9.56c.1.618.202 1.234.202 1.851 0 3.187-.91 5.757-2.934 7.608C16.392 20.972 13.963 22 10.826 22c-3.035 0-5.565-1.028-7.69-3.187S0 14.084 0 11c0-3.084 1.012-5.654 3.137-7.813S7.792 0 10.827 0c2.834 0 5.262.925 7.286 2.878l-2.933 2.88c-1.114-1.13-2.631-1.645-4.352-1.645-1.821 0-3.44.72-4.756 2.056-1.315 1.44-2.023 3.084-2.023 4.935 0 1.953.708 3.598 2.023 4.934 1.316 1.337 2.935 2.056 4.756 2.056 1.518 0 2.834-.41 4.048-1.233 1.214-.925 1.923-2.056 2.125-3.495h-6.173V9.56h10.22zM34 12.749h-3.036v3.187h-3.137v-3.187H24.69V9.56h3.137V6.374h3.137V9.56H34v3.187z"/></svg><svg viewBox="0 0 28 23" id="footer-twitter-icon" xmlns="http://www.w3.org/2000/svg"><path d="M28 2.721c-1.03.462-2.136.775-3.298.915A5.822 5.822 0 0027.227.425a11.503 11.503 0 01-3.65 1.41A5.698 5.698 0 0019.384 0c-3.172 0-5.744 2.601-5.744 5.807 0 .455.051.899.15 1.324-4.774-.243-9.006-2.555-11.84-6.07a5.814 5.814 0 00-.776 2.92 5.823 5.823 0 002.555 4.834 5.696 5.696 0 01-2.602-.729v.073c0 2.813 1.98 5.16 4.607 5.695a5.763 5.763 0 01-1.514.204c-.37 0-.73-.038-1.081-.108.731 2.309 2.852 3.988 5.364 4.034a11.443 11.443 0 01-7.133 2.482c-.464 0-.92-.028-1.37-.08A16.105 16.105 0 008.804 23c10.567 0 16.342-8.85 16.342-16.526l-.019-.752a11.542 11.542 0 002.873-3z"/></svg><svg viewBox="0 0 502.664 502.664" id="icon" xmlns="http://www.w3.org/2000/svg"><path d="M153.821 358.226L0 274.337v-46.463l153.821-83.414v54.574L46.636 250.523l107.185 53.431v54.272zm26.273 29.358L282.103 115.08h32.227L212.084 387.584h-31.99zm168.749-29.358v-54.272l107.164-52.999-107.164-52.59v-53.927l153.821 83.522v46.183l-153.821 84.083z"/></svg></svg>